<svg width="535" height="790" viewBox="0 0 535 790" fill="none" xmlns="http://www.w3.org/2000/svg">
<g clip-path="url(#clip0_201_49)">
<path d="M264.16 789.57H264.56C266.217 789.57 267.56 788.227 267.56 786.57V3.29999C267.56 1.64313 266.217 0.299988 264.56 0.299988H264.16C262.503 0.299988 261.16 1.64313 261.16 3.29999V786.57C261.16 788.227 262.503 789.57 264.16 789.57Z" fill="black"/>
<path d="M129.52 730.9C112.805 714.144 100.588 693.442 94 670.71C87.4553 647.967 86.1053 624.045 90.05 600.71C113.388 596.78 137.311 598.147 160.05 604.71C182.796 611.299 203.505 623.535 220.25 640.28C236.995 657.025 249.231 677.734 255.82 700.48C262.366 723.222 263.716 747.145 259.77 770.48C236.432 774.41 212.509 773.043 189.77 766.48C167.01 759.886 146.285 747.647 129.52 730.9Z" fill="#55EBA3"/>
<path d="M131.64 728.78C98.5 695.23 85.64 647.7 92.89 601.52L90.79 603.62C126.79 597.92 164.47 604.21 195.37 624.06C224.196 642.786 245.038 671.554 253.85 704.78C259.354 725.952 260.376 748.04 256.85 769.63L258.94 767.54C212.76 774.83 165.23 761.93 131.68 728.78C128.93 726.06 124.68 730.3 127.44 733.02C162.61 767.78 212.19 780.96 260.54 773.32C261.046 773.195 261.508 772.934 261.876 772.566C262.244 772.198 262.505 771.736 262.63 771.23C268.57 733.62 262.36 694.33 241.63 662.03C221.921 631.607 191.525 609.674 156.44 600.56C134.44 594.85 111.64 594.3 89.29 597.83C88.7827 597.957 88.3194 598.22 87.9496 598.59C87.5798 598.959 87.3172 599.423 87.19 599.93C79.56 648.27 92.74 697.85 127.49 733.02C130.12 735.77 134.36 731.53 131.64 728.78Z" fill="#1A1A1A"/>
<path d="M306.52 521.25C323.272 504.514 343.979 492.279 366.72 485.68C389.459 479.117 413.382 477.75 436.72 481.68C440.648 505.018 439.281 528.941 432.72 551.68C426.138 574.423 413.91 595.132 397.174 611.88C380.438 628.628 359.738 640.871 337 647.47C314.261 654.033 290.338 655.4 267 651.47C263.054 628.135 264.404 604.212 270.95 581.47C277.547 558.722 289.782 538.008 306.52 521.25Z" fill="#55EBA3"/>
<path d="M308.64 523.37C342.19 490.22 389.72 477.37 435.9 484.62L433.81 482.52C439.5 518.52 433.21 556.2 413.36 587.1C394.636 615.926 365.867 636.766 332.64 645.57C311.469 651.08 289.379 652.102 267.79 648.57L269.89 650.66C262.59 604.48 275.5 556.95 308.64 523.4C311.36 520.65 307.12 516.4 304.4 519.16C269.65 554.33 256.47 603.91 264.1 652.26C264.229 652.765 264.492 653.227 264.862 653.595C265.231 653.963 265.694 654.224 266.2 654.35C303.8 660.29 343.1 654.07 375.4 633.3C405.818 613.587 427.746 583.193 436.86 548.11C442.58 526.11 443.13 503.31 439.59 480.96C439.467 480.453 439.207 479.989 438.838 479.618C438.47 479.248 438.007 478.986 437.5 478.86C389.15 471.22 339.57 484.4 304.4 519.16C301.65 521.85 305.89 526.09 308.64 523.37Z" fill="#1A1A1A"/>
<path d="M347.62 115.54C358.213 104.934 365.959 91.8257 370.14 77.43C374.282 63.0337 375.136 47.8908 372.64 33.12C357.868 30.6272 342.726 31.485 328.33 35.63C313.931 39.8026 300.821 47.5497 290.22 58.1503C279.62 68.751 271.873 81.8608 267.7 96.26C263.558 110.656 262.704 125.799 265.2 140.57C279.968 143.062 295.106 142.207 309.5 138.07C323.9 133.887 337.011 126.138 347.62 115.54Z" fill="#55EBA3"/>
<path d="M349.74 117.66C372.03 94.94 380.35 63.47 375.53 32.33C375.405 31.8235 375.144 31.3605 374.776 30.9906C374.408 30.6207 373.946 30.3578 373.44 30.23C342.53 25.45 310.54 33.58 288.1 56.03C265.66 78.48 257.52 110.46 262.3 141.37C262.428 141.876 262.691 142.338 263.061 142.706C263.431 143.074 263.893 143.335 264.4 143.46C295.54 148.27 327.01 139.96 349.74 117.66C352.5 114.96 348.25 110.71 345.49 113.42C324.41 134.11 295 142.15 266 137.68L268.1 139.77C263.65 111.01 271.54 81.11 292.35 60.27C313.16 39.43 343.12 31.57 371.85 36.02L369.76 33.92C374.23 62.92 366.19 92.34 345.5 113.42C342.79 116.18 347 120.43 349.74 117.66Z" fill="#1A1A1A"/>
<path d="M179.51 222.68C158.83 201.62 150.74 172.1 155.26 143.18L153.16 145.28C181.86 140.8 211.88 148.71 232.66 169.53C253.44 190.35 261.4 220.29 256.91 249.03L259.01 246.94C230.09 251.45 200.57 243.36 179.51 222.68C176.75 219.97 172.51 224.21 175.27 226.93C197.97 249.22 229.51 257.57 260.6 252.72C261.107 252.595 261.569 252.334 261.939 251.966C262.309 251.598 262.572 251.136 262.7 250.63C267.52 219.75 259.33 187.72 236.9 165.29C214.47 142.86 182.45 134.67 151.56 139.49C151.054 139.618 150.592 139.881 150.224 140.251C149.856 140.621 149.595 141.083 149.47 141.59C144.62 172.68 152.97 204.22 175.27 226.93C178 229.68 182.22 225.44 179.51 222.68Z" fill="#5AC893"/>
<path d="M263.328 537.129L264.085 536.372C264.803 535.653 264.803 534.488 264.085 533.77L64.433 334.118C63.7144 333.4 62.5494 333.4 61.8308 334.118L61.0742 334.875C60.3556 335.593 60.3556 336.758 61.0742 337.477L260.726 537.129C261.444 537.847 262.609 537.847 263.328 537.129Z" fill="black"/>
<path d="M155.34 508.73C145.082 508.724 134.99 506.13 126 501.19C117.027 496.242 109.28 489.342 103.33 481C109.269 472.624 117.017 465.693 126 460.72C134.989 455.767 145.086 453.17 155.35 453.17C165.614 453.17 175.71 455.767 184.7 460.72C193.676 465.696 201.417 472.627 207.35 481C201.409 489.359 193.664 496.276 184.69 501.24C175.692 506.165 165.597 508.741 155.34 508.73Z" fill="#55EBA3"/>
<path d="M155.34 505.73C135.4 505.45 117.65 495.38 105.92 479.44V482.44C117.53 466.66 135.48 456.14 155.34 456.14C175.2 456.14 193.15 466.66 204.76 482.44V479.44C193.03 495.38 175.28 505.44 155.34 505.73C151.48 505.79 151.47 511.79 155.34 511.73C177.56 511.42 196.91 500.17 209.94 482.47C210.213 482.017 210.358 481.499 210.358 480.97C210.358 480.441 210.213 479.923 209.94 479.47C197.04 461.94 177.46 450.23 155.34 450.2C133.22 450.17 113.62 461.97 100.74 479.47C100.466 479.923 100.322 480.441 100.322 480.97C100.322 481.499 100.466 482.017 100.74 482.47C113.74 500.17 133.12 511.42 155.34 511.73C159.2 511.79 159.2 505.79 155.34 505.73Z" fill="#1A1A1A"/>
<path d="M181.92 371.7C181.64 349.51 170.34 330.09 152.65 317.1C152.197 316.827 151.679 316.682 151.15 316.682C150.621 316.682 150.103 316.827 149.65 317.1C132.12 329.98 120.41 349.59 120.38 371.7C120.35 393.81 132.14 413.43 149.65 426.29C150.103 426.563 150.621 426.708 151.15 426.708C151.679 426.708 152.197 426.563 152.65 426.29C170.34 413.29 181.65 393.88 181.92 371.7C181.97 367.83 175.97 367.83 175.92 371.7C175.67 391.62 165.56 409.41 149.62 421.11H152.62C136.84 409.52 126.32 391.54 126.32 371.7C126.32 351.86 136.84 333.87 152.62 322.28H149.62C165.56 333.99 175.67 351.77 175.92 371.7C176 375.55 182 375.57 181.92 371.7Z" fill="#5AC893"/>
<path d="M47.8601 390.42C39.1644 390.412 30.6123 388.203 23.0001 384C15.4065 379.8 8.8522 373.95 3.82007 366.88C8.85202 359.818 15.4069 353.977 23.0001 349.79C30.6066 345.599 39.1502 343.401 47.8351 343.401C56.5199 343.401 65.0635 345.599 72.6701 349.79C80.2635 353.986 86.8154 359.837 91.8401 366.91C86.8178 373.966 80.2773 379.806 72.7001 384C65.0926 388.197 56.5485 390.405 47.8601 390.42Z" fill="#55EBA3"/>
<path d="M47.86 387.42C31.11 387.13 16.33 378.77 6.43999 365.42V368.42C16.19 355.23 31.21 346.37 47.86 346.42C64.51 346.47 79.51 355.22 89.28 368.42V365.42C79.4 378.8 64.61 387.16 47.86 387.42C44 387.48 43.99 393.48 47.86 393.42C66.86 393.09 83.28 383.55 94.46 368.42C94.7335 367.967 94.8781 367.449 94.8781 366.92C94.8781 366.391 94.7335 365.873 94.46 365.42C83.46 350.49 66.78 340.42 47.86 340.42C28.94 340.42 12.3 350.48 1.25998 365.42C0.986481 365.873 0.841919 366.391 0.841919 366.92C0.841919 367.449 0.986481 367.967 1.25998 368.42C12.45 383.55 28.84 393.09 47.86 393.42C51.72 393.48 51.72 387.48 47.86 387.42Z" fill="#1A1A1A"/>
<path d="M499 165.091L497.82 163.91C497.101 163.191 495.936 163.191 495.217 163.91L261.292 397.835C260.574 398.554 260.574 399.719 261.292 400.437L262.473 401.618C263.192 402.337 264.357 402.337 265.075 401.618L499 167.693C499.719 166.974 499.719 165.809 499 165.091Z" fill="black"/>
<path d="M399.63 374.44C428.82 374.17 454.7 359.15 471.73 335.83C472.003 335.377 472.148 334.859 472.148 334.33C472.148 333.801 472.003 333.283 471.73 332.83C454.82 309.68 428.73 294.21 399.63 294.21C370.53 294.21 344.44 309.68 327.53 332.83C327.257 333.283 327.112 333.801 327.112 334.33C327.112 334.859 327.257 335.377 327.53 335.83C344.53 359.15 370.44 374.17 399.63 374.44C403.49 374.44 403.5 368.44 399.63 368.44C372.69 368.19 348.47 354.37 332.71 332.8V335.8C348.34 314.4 372.78 300.13 399.63 300.15C426.48 300.17 450.89 314.37 466.55 335.8V332.8C450.79 354.37 426.55 368.19 399.63 368.44C395.77 368.48 395.76 374.48 399.63 374.44Z" fill="#5AC893"/>
<path d="M413 213.07C412.991 199.357 409.524 185.868 402.92 173.85C396.3 161.86 387.073 151.509 375.92 143.56C364.766 151.508 355.539 161.86 348.92 173.85C342.301 185.864 338.83 199.358 338.83 213.075C338.83 226.792 342.301 240.286 348.92 252.3C355.537 264.289 364.764 274.638 375.92 282.58C387.075 274.637 396.302 264.289 402.92 252.3C409.526 240.279 412.993 226.786 413 213.07Z" fill="#55EBA3"/>
<path d="M416 213.07C415.69 183.85 400.72 158.07 377.39 140.97C376.937 140.697 376.419 140.552 375.89 140.552C375.361 140.552 374.843 140.697 374.39 140.97C351.26 157.89 335.74 183.97 335.77 213.07C335.8 242.17 351.23 268.23 374.39 285.17C374.843 285.444 375.361 285.588 375.89 285.588C376.419 285.588 376.937 285.444 377.39 285.17C400.72 268.1 415.69 242.3 416 213.07C416 209.21 410 209.21 410 213.07C409.72 240.07 395.94 264.2 374.36 279.99H377.36C355.94 264.32 341.74 239.99 341.71 213.07C341.68 186.15 355.96 161.81 377.36 146.16H374.36C395.94 162 409.72 186.11 410 213.07C410.05 216.93 416.05 216.94 416 213.07Z" fill="#1A1A1A"/>
<path d="M479.84 262.86C490.102 262.855 500.197 260.262 509.19 255.32C518.162 250.354 525.906 243.437 531.85 235.08C525.906 226.726 518.162 219.813 509.19 214.85C500.2 209.897 490.104 207.3 479.84 207.3C469.576 207.3 459.48 209.897 450.49 214.85C441.516 219.81 433.772 226.724 427.83 235.08C433.771 243.439 441.516 250.356 450.49 255.32C459.483 260.262 469.578 262.855 479.84 262.86Z" fill="#55EBA3"/>
<path d="M479.84 265.86C502.06 265.55 521.41 254.3 534.44 236.6C534.714 236.147 534.858 235.629 534.858 235.1C534.858 234.571 534.714 234.053 534.44 233.6C521.54 216 502 204.33 479.84 204.3C457.68 204.27 438.12 216.07 425.24 233.57C424.966 234.023 424.822 234.541 424.822 235.07C424.822 235.599 424.966 236.117 425.24 236.57C438.24 254.27 457.62 265.52 479.84 265.83C483.7 265.89 483.7 259.89 479.84 259.83C459.9 259.55 442.15 249.48 430.42 233.54V236.54C442 220.82 460 210.3 479.84 210.3C499.68 210.3 517.65 220.82 529.26 236.6V233.6C517.53 249.54 499.78 259.6 479.84 259.89C476 259.92 476 265.92 479.84 265.86Z" fill="#1A1A1A"/>
<path d="M459.26 125.83C459.51 105.9 469.62 88.12 485.56 76.41H482.56C498.31 88 508.82 106 508.82 125.83C508.82 145.66 498.31 163.65 482.53 175.24H485.53C469.59 163.54 459.53 145.75 459.23 125.83C459.23 121.97 453.23 121.96 453.23 125.83C453.51 148.01 464.81 167.43 482.5 180.42C482.953 180.694 483.471 180.838 484 180.838C484.529 180.838 485.047 180.694 485.5 180.42C503.03 167.54 514.74 147.93 514.76 125.83C514.78 103.73 503 84.09 485.5 71.23C485.047 70.9565 484.529 70.812 484 70.812C483.471 70.812 482.953 70.9565 482.5 71.23C464.81 84.23 453.5 103.64 453.23 125.83C453.21 129.69 459.21 129.69 459.26 125.83Z" fill="#5AC893"/>
<path d="M423.22 584.67C439.744 584.67 453.14 571.274 453.14 554.75C453.14 538.226 439.744 524.83 423.22 524.83C406.696 524.83 393.3 538.226 393.3 554.75C393.3 571.274 406.696 584.67 423.22 584.67Z" fill="#F32F2F"/>
<path d="M456.14 555.1C456.224 548.32 454.213 541.679 450.382 536.085C446.551 530.491 441.086 526.215 434.734 523.843C428.382 521.471 421.453 521.117 414.892 522.83C408.332 524.543 402.46 528.24 398.079 533.415C393.698 538.59 391.021 544.991 390.415 551.744C389.808 558.498 391.3 565.274 394.689 571.147C398.077 577.02 403.196 581.704 409.345 584.559C415.495 587.415 422.377 588.302 429.05 587.1C444.67 584.37 455.61 570.63 456.14 555.1C456.27 551.24 450.27 551.24 450.14 555.1C449.64 569.79 437.78 581.84 422.87 581.67C419.335 581.624 415.843 580.882 412.595 579.487C409.346 578.092 406.404 576.07 403.937 573.538C401.47 571.006 399.526 568.012 398.215 564.728C396.905 561.445 396.254 557.935 396.3 554.4C396.346 550.865 397.088 547.373 398.483 544.125C399.878 540.876 401.9 537.935 404.432 535.467C406.964 533 409.958 531.056 413.241 529.745C416.525 528.435 420.035 527.784 423.57 527.83C438.52 528 449.98 540.43 450.14 555.1C450.18 559 456.18 559 456.14 555.1Z" fill="black"/>
<path d="M419.002 528.153C419.09 520.67 414.863 514.553 409.562 514.491C404.26 514.429 399.891 520.445 399.804 527.928C399.716 535.411 403.943 541.528 409.245 541.59C414.546 541.652 418.915 535.636 419.002 528.153Z" fill="white"/>
<path d="M420.51 528.16C420.33 521.83 417.24 513.07 409.57 513C402.09 512.93 398.38 521.61 398.32 527.94C398.26 534.27 401.52 542.51 408.7 543.05C416.7 543.64 420.17 534.65 420.51 528.16C420.61 526.23 417.61 526.24 417.51 528.16C417.27 532.76 415.17 540.24 409.26 540.1C403.35 539.96 401.26 532.57 401.32 527.94C401.38 523.31 403.8 515.86 409.57 516C415.5 516.14 417.38 523.53 417.51 528.16C417.57 530.09 420.57 530.1 420.51 528.16Z" fill="black"/>
<path d="M446.666 528.468C446.753 520.985 442.527 514.869 437.225 514.807C431.923 514.745 427.555 520.761 427.467 528.244C427.38 535.727 431.607 541.843 436.908 541.905C442.21 541.967 446.578 535.951 446.666 528.468Z" fill="white"/>
<path d="M448.18 528.49C447.99 522.15 444.9 513.4 437.24 513.32C429.76 513.25 426.04 521.93 425.98 528.26C425.92 534.59 429.18 542.83 436.36 543.37C444.36 543.97 447.83 534.98 448.18 528.49C448.28 526.56 445.28 526.56 445.18 528.49C444.93 533.08 442.83 540.56 436.92 540.42C431.01 540.28 428.92 532.9 428.98 528.26C429.04 523.62 431.47 516.19 437.24 516.32C443.01 516.45 445.04 523.85 445.18 528.49C445.23 530.41 448.23 530.42 448.18 528.49Z" fill="black"/>
<path d="M396.07 541.09C379.42 530.87 357.72 531.09 341.64 542.19C338.48 544.36 341.48 549.56 344.64 547.37C351.737 542.544 360.079 539.874 368.659 539.68C377.239 539.487 385.693 541.779 393 546.28C396.3 548.28 399.31 543.11 396 541.09H396.07Z" fill="black"/>
<path d="M395.83 560.85C386.044 556.004 374.97 554.397 364.21 556.26C354.66 557.96 346.01 564.41 340.21 572.06C337.88 575.13 343.09 578.13 345.39 575.06C344.71 575.97 346.32 573.98 346.68 573.58C347.932 572.168 349.268 570.832 350.68 569.58C354.91 565.705 360.129 563.075 365.76 561.98C374.957 560.499 384.387 561.896 392.76 565.98C396.18 567.76 399.22 562.58 395.76 560.8L395.83 560.85Z" fill="black"/>
<path d="M406.23 575.93C386.85 571.09 366.53 586.5 359.89 604.06C358.52 607.68 364.32 609.24 365.67 605.65C371.06 591.42 388.55 577.7 404.67 581.71C408.42 582.65 410.02 576.86 406.27 575.93H406.23Z" fill="black"/>
<path d="M454.26 547C462.168 542.654 471.121 540.571 480.136 540.98C489.151 541.389 497.878 544.275 505.36 549.32C508.55 551.52 511.56 546.32 508.36 544.14C491.63 532.6 469 532 451.23 541.78C447.85 543.64 450.87 548.83 454.23 546.96L454.26 547Z" fill="black"/>
<path d="M454 566.72C462.16 562.94 473.52 561.72 482.68 563.43C488.356 564.585 493.634 567.194 498 571C499.49 572.243 500.899 573.579 502.22 575C502.58 575.38 504.61 577.83 503.93 576.93C506.23 579.93 511.45 576.93 509.11 573.93C503.11 566.05 494.11 559.46 484.28 557.6C473.041 555.511 461.432 556.87 450.98 561.5C447.48 563.12 450.52 568.29 453.98 566.68L454 566.72Z" fill="black"/>
<path d="M441.23 582.12C457.77 578.6 476.23 591.9 481.86 607.12C483.19 610.71 488.99 609.12 487.65 605.53C480.84 587.17 459.57 572.13 439.65 576.38C435.87 577.18 437.47 582.97 441.24 582.16L441.23 582.12Z" fill="black"/>
<path d="M414.412 534.313C414.458 530.353 412.221 527.116 409.416 527.084C406.61 527.051 404.298 530.234 404.252 534.194C404.206 538.153 406.443 541.39 409.248 541.423C412.053 541.455 414.365 538.272 414.412 534.313Z" fill="black"/>
<path d="M442.085 533.505C442.132 529.545 439.895 526.309 437.089 526.276C434.284 526.243 431.972 529.427 431.926 533.386C431.88 537.346 434.116 540.582 436.922 540.615C439.727 540.648 442.039 537.465 442.085 533.505Z" fill="black"/>
</g>
<defs>
<clipPath id="clip0_201_49">
<rect width="535" height="790" fill="white"/>
</clipPath>
</defs>
</svg>
